<?xml version="1.0" encoding="utf-8"?>
<!-- Generator: Adobe Illustrator 24.0.0, SVG Export Plug-In . SVG Version: 6.00 Build 0)  -->
<svg version="1.1" id="Layer_1" xmlns="http://www.w3.org/2000/svg" xmlns:xlink="http://www.w3.org/1999/xlink" x="0px" y="0px"
	 viewBox="0 0 23.7 34.3" style="enable-background:new 0 0 23.7 34.3;" xml:space="preserve">
<style type="text/css">
	.st0{fill:#CDD844;}
</style>
<path class="st0" d="M11.8,34.3c-0.7,0-1.2-0.6-1.5-1.2c-2.4-4-5-8.3-7.6-12.5c-1.2-2-2-3.8-2.4-5.6c-0.5-2.1-0.4-4.1,0.1-6.2
	c0.4-1.5,1-2.8,1.9-4c0.8-1.2,1.8-2.2,3-2.9c1.2-0.8,2.5-1.3,3.9-1.6c1.4-0.3,2.9-0.4,4.5-0.2c2.8,0.4,5.3,1.8,7.1,4
	c1.8,2.2,2.8,5,2.8,7.9c0.1,3.7-1.5,6.8-2.9,9c-2.3,3.8-4.7,7.7-7.4,12.2C13.2,33.5,12.7,34.3,11.8,34.3
	C11.8,34.3,11.8,34.3,11.8,34.3z M11.9,1.6C7.2,1.6,3.3,4.6,2,9.3c-0.9,3.4-0.3,6.8,2.1,10.5c2.6,4.2,5.2,8.5,7.6,12.5
	c0.1,0.1,0.1,0.2,0.1,0.2c0-0.1,0.1-0.1,0.1-0.2c2.7-4.4,5.1-8.4,7.4-12.2c1.3-2.1,2.7-4.9,2.7-8.1l0,0l0,0c0-5.2-3.6-9.6-8.5-10.3
	C13,1.7,12.5,1.6,11.9,1.6z M11.8,17.9c-1.5,0-3-0.6-4.2-1.8c-1.2-1.2-1.8-2.7-1.8-4.4l0.8,0l-0.8,0c0-1.6,0.7-3.1,1.8-4.2
	c1.2-1.1,2.7-1.7,4.4-1.7c1.6,0,3.1,0.7,4.2,1.8c1.1,1.1,1.7,2.6,1.7,4.2c0,1.6-0.7,3-1.8,4.2C14.9,17.2,13.4,17.9,11.8,17.9
	C11.9,17.9,11.8,17.9,11.8,17.9z M11.9,7.5c-1.2,0-2.3,0.4-3.1,1.2C8,9.5,7.5,10.6,7.5,11.8c0,1.2,0.5,2.3,1.3,3.2
	c0.8,0.8,1.9,1.3,3,1.3c0,0,0,0,0,0c2.3,0,4.3-2,4.4-4.3c0-2.4-1.9-4.3-4.2-4.4C11.9,7.5,11.9,7.5,11.9,7.5z"/>
</svg>
