<?xml version="1.0" encoding="utf-8"?>
<!-- Generator: Adobe Illustrator 24.0.0, SVG Export Plug-In . SVG Version: 6.00 Build 0)  -->
<svg version="1.1" id="Layer_1" xmlns="http://www.w3.org/2000/svg" xmlns:xlink="http://www.w3.org/1999/xlink" x="0px" y="0px"
	 viewBox="0 0 32.5 20.7" style="enable-background:new 0 0 32.5 20.7;" xml:space="preserve">
<style type="text/css">
	.st0{fill:#CDD844;}
</style>
<g>
	<g>
		<g>
			<path class="st0" d="M29,20.7H3.5c-1.9,0-3.5-1.6-3.5-3.5V3.5C0,1.6,1.6,0,3.5,0H29c1.9,0,3.5,1.6,3.5,3.5v13.6
				C32.5,19.1,30.9,20.7,29,20.7z M3.5,1.5c-1.1,0-2,0.9-2,2v13.6c0,1.1,0.9,2,2,2H29c1.1,0,2-0.9,2-2V3.5c0-1.1-0.9-2-2-2H3.5z"/>
		</g>
		<g>
			<path class="st0" d="M16,15.3c-0.9,0-1.8-0.3-2.6-0.8l0,0l0,0L0.3,3.5l1-1.2l13,11c1.1,0.7,2.5,0.7,3.6-0.1L31,1.4l1,1.1
				L18.8,14.4l0,0C18,15,17,15.3,16,15.3z"/>
		</g>
		<g>
			
				<rect x="-0.6" y="13.9" transform="matrix(0.7264 -0.6873 0.6873 0.7264 -8.5788 7.8343)" class="st0" width="12.2" height="1.5"/>
		</g>
		<g>
			
				<rect x="25.2" y="9.1" transform="matrix(0.6873 -0.7264 0.7264 0.6873 -2.923 23.6289)" class="st0" width="1.5" height="12.3"/>
		</g>
	</g>
</g>
</svg>
