<?xml version="1.0" encoding="utf-8"?>
<!-- Generator: Adobe Illustrator 24.0.0, SVG Export Plug-In . SVG Version: 6.00 Build 0)  -->
<svg version="1.1" id="Layer_1" xmlns="http://www.w3.org/2000/svg" xmlns:xlink="http://www.w3.org/1999/xlink" x="0px" y="0px"
	 viewBox="0 0 30.7 30.7" style="enable-background:new 0 0 30.7 30.7;" xml:space="preserve">
<style type="text/css">
	.st0{fill:#CEDE3A;}
</style>
<path class="st0" d="M15.3,30.7C6.9,30.7,0,23.8,0,15.4C0,6.8,6.9,0,15.4,0c8.4,0,15.3,6.9,15.3,15.4C30.7,23.8,23.8,30.7,15.3,30.7
	z M1.2,15.9c0,0.4,0.1,0.7,0.1,1.1c0.3,2.3,1,4.3,2.3,6.2c0.1,0.1,0.1,0.1,0.2,0.1c1.2-0.5,2.5-0.9,3.9-1.2C8,22,8.3,22,8.6,21.9
	c-0.4-2-0.7-4-0.7-6C5.7,15.9,3.5,15.9,1.2,15.9z M29.4,15.9c-2.2,0-4.4,0-6.6,0c0,2-0.3,4-0.7,6c0.1,0,0.1,0,0.1,0
	c1.6,0.3,3.1,0.7,4.6,1.3c0.1,0,0.2,0,0.2-0.1c1.3-2,2.1-4.2,2.3-6.6C29.4,16.4,29.4,16.1,29.4,15.9z M29.4,14.6c0-0.1,0-0.1,0-0.2
	c0-0.3-0.1-0.6-0.1-1c-0.3-2.2-1.1-4.2-2.3-6c-0.1-0.1-0.1-0.1-0.2-0.1c-1.2,0.5-2.5,0.9-3.8,1.2c-0.3,0.1-0.6,0.1-0.9,0.2
	c0.4,1.9,0.7,3.9,0.7,5.9C25,14.6,27.2,14.6,29.4,14.6z M7.9,14.6c0-2,0.3-3.9,0.7-5.9c0,0-0.1,0-0.1,0C6.9,8.4,5.3,8,3.8,7.4
	c-0.1,0-0.1,0-0.2,0.1C3.2,8.1,2.8,8.8,2.5,9.6c-0.6,1.4-1,3-1.2,4.5c0,0.2,0,0.3,0,0.5C3.5,14.6,5.7,14.6,7.9,14.6z M14.7,15.9
	c-1.9,0-3.7,0-5.6,0c0,0,0,0.1,0,0.1c0,1.9,0.2,3.7,0.6,5.5c0,0.2,0,0.2,0.2,0.2c1.5-0.2,3.1-0.3,4.6-0.3c0,0,0.1,0,0.1,0
	C14.7,19.5,14.7,17.7,14.7,15.9z M16,15.9c0,0.1,0,0.1,0,0.1c0,1.7,0,3.4,0,5.1c0,0.1,0,0.2,0.2,0.2c1.3,0,2.6,0.1,3.9,0.3
	c0.3,0,0.5,0.1,0.8,0.1c0.4-1.9,0.6-3.9,0.7-5.8C19.7,15.9,17.8,15.9,16,15.9z M14.7,9.3c0,0-0.1,0-0.1,0C13,9.3,11.5,9.2,9.9,9
	c-0.1,0-0.1,0-0.1,0.1c-0.4,1.8-0.6,3.6-0.7,5.4c0,0,0,0.1,0,0.1c1.9,0,3.7,0,5.6,0C14.7,12.8,14.7,11.1,14.7,9.3z M21.6,14.6
	c0-1.9-0.3-3.8-0.7-5.7c-0.8,0.1-1.6,0.2-2.5,0.2c-0.8,0.1-1.6,0.1-2.5,0.1c0,1.8,0,3.5,0,5.3C17.8,14.6,19.7,14.6,21.6,14.6z
	 M16,22.6c0,2.2,0,4.5,0,6.7c0,0,0.1,0,0.1,0c0.4-0.1,0.8-0.3,1.2-0.6c0.6-0.5,1.1-1.1,1.5-1.7c0.8-1.2,1.3-2.6,1.8-4c0,0,0,0,0-0.1
	C19.9,22.8,16.4,22.5,16,22.6z M10.1,22.9c0,0.1,0,0.1,0,0.1c0.3,0.7,0.5,1.4,0.8,2.1c0.4,1,0.9,1.9,1.6,2.7c0.5,0.6,1,1,1.7,1.3
	c0.1,0.1,0.3,0.1,0.4,0.2c0-2.3,0-4.5,0-6.8C13.2,22.6,11.6,22.7,10.1,22.9z M14.7,8.1c0-2.3,0-4.5,0-6.8c-0.3,0.1-0.6,0.2-0.8,0.4
	c-0.8,0.4-1.3,1.1-1.8,1.8c-0.8,1.1-1.3,2.3-1.7,3.5c-0.1,0.2-0.2,0.5-0.2,0.8C11.7,7.9,13.2,8,14.7,8.1z M16,8.1
	c1.5,0,3.1-0.1,4.6-0.3c0-0.1,0-0.1,0-0.1c-0.2-0.6-0.4-1.3-0.7-1.9c-0.4-1-1-2-1.7-2.8c-0.4-0.5-0.9-1-1.6-1.3
	c-0.2-0.1-0.4-0.2-0.6-0.2C16,3.6,16,5.8,16,8.1z M26.2,6.3c-2-2.3-4.4-3.9-7.3-4.6c1.5,1.7,2.3,3.7,3,5.8
	C22.4,7.5,25.5,6.7,26.2,6.3z M11.8,1.7C8.9,2.4,6.5,4,4.5,6.3c1.4,0.6,2.9,0.9,4.4,1.2C9.2,6.5,9.6,5.4,10,4.4
	C10.5,3.5,11.1,2.5,11.8,1.7z M18.8,29c3-0.8,5.4-2.3,7.4-4.7c-0.1,0-0.1,0-0.1-0.1c-1.3-0.5-2.7-0.9-4.2-1.1c-0.1,0-0.1,0-0.1,0.1
	c-0.1,0.4-0.2,0.8-0.4,1.2c-0.5,1.3-1,2.6-1.9,3.7C19.3,28.4,19.1,28.7,18.8,29z M4.5,24.3c2,2.3,4.4,3.9,7.3,4.6
	c-1.5-1.7-2.3-3.7-3-5.8C7.4,23.4,5.9,23.8,4.5,24.3z"/>
</svg>
