<?xml version="1.0" encoding="utf-8"?>
<!-- Generator: Adobe Illustrator 24.0.0, SVG Export Plug-In . SVG Version: 6.00 Build 0)  -->
<svg version="1.1" id="Layer_1" xmlns="http://www.w3.org/2000/svg" xmlns:xlink="http://www.w3.org/1999/xlink" x="0px" y="0px"
	 viewBox="0 0 23.7 25.8" style="enable-background:new 0 0 23.7 25.8;" xml:space="preserve">
<style type="text/css">
	.st0{fill:#CDD844;}
</style>
<g>
	<g>
		<g>
			<path class="st0" d="M18.4,25.8c-0.1,0-0.3,0-0.4,0c-6.5-0.5-11.5-3.5-15-8.9C0.8,13.5-0.2,9.8,0,5.6c0-0.9,0.3-1.7,0.7-2.4
				c0.4-0.7,1-1.3,1.7-1.7c0.7-0.4,1.4-0.7,2.2-0.7c0.8-0.1,1.7,0.1,2.4,0.4C8,1.6,8.5,2.4,8.6,3.3c0,0.3,0.1,0.5,0.1,0.8
				C8.8,5.2,8.9,6.3,9,7.3c0.2,1.3-0.3,2.3-1.5,2.8c-0.2,0.1-0.4,0.2-0.6,0.3c0,0,0,0.1,0,0.1c1.3,3.6,3.5,6.2,7,7.7
				c0.2-0.4,0.5-0.7,0.7-1c0.6-0.7,1.4-0.9,2.2-0.7c1.3,0.3,2.8,0.6,4.4,0.9c0.6,0.1,1.5,0.6,1.8,1.8c0.2,0.8,0.3,1.7,0.1,2.5
				c-0.2,0.8-0.5,1.5-1,2.1C21.3,25.1,19.9,25.8,18.4,25.8z M5,2.4c-0.6,0-1.2,0.2-1.8,0.5c-1,0.6-1.6,1.6-1.6,2.8
				c-0.2,3.8,0.7,7.2,2.7,10.2c3.2,5,7.9,7.7,13.8,8.2c1.1,0.1,2.2-0.4,2.9-1.2c0.7-0.9,0.9-2,0.6-3.1c-0.1-0.5-0.4-0.6-0.6-0.6
				c-1.6-0.4-3-0.7-4.3-0.9c-0.4-0.1-0.6,0.1-0.7,0.2c-0.3,0.3-0.5,0.7-0.7,1.1c-0.3,0.6-0.8,0.8-1.4,0.5c-4.1-1.7-6.9-4.7-8.3-8.9
				c-0.1-0.2-0.1-0.4-0.2-0.6c0-0.1,0-0.2-0.1-0.3c-0.1-0.4,0.1-0.8,0.4-1C5.8,9.2,6,9.1,6.1,9.1c0.3-0.1,0.5-0.2,0.7-0.3
				c0.5-0.3,0.7-0.6,0.6-1.2C7.3,6.4,7.1,5.3,7,4.3C7,4,7,3.8,7,3.5c0-0.4-0.2-0.6-0.6-0.8C6,2.5,5.5,2.4,5,2.4z M13.8,18.7
				C13.8,18.7,13.8,18.7,13.8,18.7C13.8,18.7,13.8,18.7,13.8,18.7z"/>
		</g>
		<g>
			<path class="st0" d="M22.4,12.3c-0.1-4-1.9-7.1-5.1-9.3c-1.2-0.8-2.5-1.3-3.8-1.7c-0.4-0.1-0.6-0.3-0.6-0.7
				c0-0.3,0.2-0.6,0.5-0.6c0.1,0,0.2,0,0.4,0c5,1.2,8.9,5.2,9.8,10.2c0.2,1,0.2,2,0.1,3c0,0.4-0.3,0.7-0.7,0.6
				c-0.4,0-0.6-0.3-0.6-0.7C22.4,12.9,22.4,12.6,22.4,12.3z"/>
		</g>
		<g>
			<path class="st0" d="M19.1,12.6c-0.1-3.2-1.6-5.5-4.4-7c-0.6-0.3-1.4-0.5-2-0.8c-0.3-0.1-0.5-0.3-0.5-0.6c0-0.3,0.2-0.6,0.5-0.6
				c0.1,0,0.3,0,0.4,0c3.8,0.9,6.8,4.1,7.3,7.9c0.1,0.6,0,1.2,0,1.8c0,0.4-0.3,0.7-0.7,0.6c-0.4,0-0.6-0.3-0.6-0.8
				C19.1,13,19.1,12.8,19.1,12.6z"/>
		</g>
	</g>
</g>
</svg>
